PathFileType	4	(X/Y/Z)	\\147.46.242.158\로컬 디스크 (e)\MOCAP Data\Iguana Capture\iguana\Project 2\Capture day 7\Session 2\Take12.trc
DataRate	CameraRate	NumFrames	NumMarkers	Units	OrigDataRate	OrigDataStartFrame	OrigNumFrames
120.0	120.0	16	23	mm	120.0	238	16798
Frame#	Time	ana:head1			ana:head2			ana:bone1			ana:bone2			ana:bone3			ana:tail1			ana:tail2			ana:tail3			ana:tail4			ana:Rforefoot1			ana:Rforefoot2			ana:Rforefoot3			ana:Lforefoot1			ana:Lforefoot2			ana:Lforefoot3			ana:RhindLeg1			ana:RhindLeg2			ana:RhindLeg3			ana:RhindLeg4			ana:LhindLeg1			ana:LhindLeg2			ana:LhindLeg3			ana:LhindLeg4			
		X1	Y1	Z1	X2	Y2	Z2	X3	Y3	Z3	X4	Y4	Z4	X5	Y5	Z5	X6	Y6	Z6	X7	Y7	Z7	X8	Y8	Z8	X9	Y9	Z9	X10	Y10	Z10	X11	Y11	Z11	X12	Y12	Z12	X13	Y13	Z13	X14	Y14	Z14	X15	Y15	Z15	X16	Y16	Z16	X17	Y17	Z17	X18	Y18	Z18	X19	Y19	Z19	X20	Y20	Z20	X21	Y21	Z21	X22	Y22	Z22	X23	Y23	Z23	

2467	20.550	347.89441	133.39784	50.33969	338.22980	137.17841	51.90183	316.10611	144.73058	46.77962	287.71976	143.95746	42.81327	265.28757	124.17448	26.39330	254.75188	98.82575	14.50475	265.14767	62.41667	10.92315	287.03232	25.92624	7.99945	301.67706	-12.82890	5.41214	315.77228	140.90578	22.32681	303.13144	141.36745	14.77754	311.49127	157.89703	4.63644	325.43802	157.55682	33.77576	332.17358	168.22926	29.22681	342.88226	156.77936	19.39869	276.30276	121.27925	20.77721	295.20328	123.11488	22.40432	302.30731	118.64241	2.50046	309.73108	126.43747	3.99186	259.26715	132.60281	19.91965	252.32352	148.08560	21.09082	241.82553	146.47511	2.66721	242.66788	157.74234	3.67281	
2468	20.558	348.37155	133.02631	50.30745	338.63437	136.79308	51.81376	316.58542	144.33632	46.75795	288.24402	143.81636	42.87731	265.48810	124.19167	26.58219	254.66681	99.06821	14.65433	264.78992	62.56173	11.04797	286.70749	26.05543	8.00742	301.61932	-12.64479	5.40840	316.07440	140.53920	22.33275	303.30063	141.19812	14.91494	311.43167	157.75497	4.42672	326.02377	157.14966	33.59417	333.10062	167.37181	28.49588	343.51309	155.80037	18.01547	276.43124	121.36501	20.93410	295.48087	123.04053	22.30367	302.43668	118.57837	2.64991	309.71301	126.42661	3.92910	259.44052	132.77809	20.08928	252.37726	148.27156	21.04596	241.84024	146.48454	2.68098	242.59073	157.87085	3.66887	
2469	20.567	348.86832	132.67662	50.24672	339.09418	136.43442	51.76505	317.07501	143.96217	46.75946	288.71378	143.69182	42.96234	265.68561	124.37759	26.72542	254.60947	99.33038	14.80239	264.48032	62.71710	11.13687	286.43561	26.21317	8.02998	301.57230	-12.39541	5.43026	316.36331	140.16599	22.36508	303.47668	141.02023	15.05157	311.25137	157.49609	4.12963	326.56638	156.75581	33.35294	334.04117	166.56874	27.87500	344.04413	154.86465	16.72584	276.58124	121.46133	21.09187	295.76614	122.96259	22.23368	302.47037	118.59789	2.64657	309.76782	126.34066	3.91727	259.61777	132.94023	20.26434	252.41757	148.45689	21.00091	241.85269	146.49248	2.69761	242.52794	157.94847	3.69010	
2470	20.575	349.38498	132.32689	50.15006	339.52615	136.10843	51.68320	317.57239	143.62518	46.76786	289.20758	143.53142	43.05960	265.87616	124.70699	26.81726	254.58733	99.64277	14.95557	264.23187	62.88602	11.16889	286.21548	26.39882	8.04856	301.55942	-12.11585	5.46746	316.61792	139.75809	22.42509	303.65976	140.83278	15.18754	311.09024	157.17946	3.71485	327.07327	156.33717	33.06949	334.86142	165.83954	27.25665	344.51624	153.97000	15.45945	276.74588	121.55769	21.23643	296.10602	122.85391	22.16986	302.50754	118.61768	2.63078	309.85788	126.25023	3.91028	259.83090	133.01704	20.42816	252.45224	148.62057	20.95679	241.86426	146.49850	2.71472	242.48689	157.97643	3.73217	
2471	20.583	349.89941	131.97060	50.03172	339.96964	135.76689	51.56035	318.06366	143.31566	46.78155	289.73160	143.30655	43.16243	266.11279	125.01466	26.90981	254.59550	99.96740	15.12440	264.01584	63.05660	11.20258	286.04581	26.60397	8.07966	301.54660	-11.79552	5.50972	317.03241	139.52820	22.42247	303.84995	140.63466	15.32297	311.10590	157.18733	3.65074	327.59531	155.93561	32.79089	335.57550	165.12865	26.59835	344.84741	153.16743	14.24037	276.92920	121.64095	21.36640	296.46283	122.71996	22.15554	302.54971	118.63753	2.59377	309.94815	126.14928	3.92805	260.08847	133.02490	20.58554	252.49257	148.76675	20.90287	241.90923	146.44272	2.72252	242.47850	157.94489	3.78142	
2472	20.592	350.41379	131.59631	49.88566	340.40228	135.41525	51.38536	318.55237	143.04364	46.76944	290.28799	143.03632	43.28234	266.37521	125.26844	27.03441	254.62033	100.34340	15.30601	263.82367	63.25061	11.25744	285.90292	26.81210	8.14005	301.54379	-11.47851	5.55947	317.53754	139.29730	22.43511	304.04745	140.42485	15.45795	311.29602	157.41232	3.88392	328.13733	155.55293	32.49089	336.17679	164.43582	25.90924	345.02463	152.42191	12.94779	277.12622	121.72027	21.48029	296.82559	122.54001	22.18470	302.49219	118.67361	2.46270	310.04251	126.01860	3.95094	260.39987	132.97758	20.71289	252.53958	148.88416	20.86164	241.97707	146.34338	2.72367	242.47998	157.90804	3.83908	
2473	20.600	350.91360	131.19681	49.71025	340.89087	134.99937	51.21436	319.03134	142.79051	46.73899	290.84561	142.81589	43.38383	266.65051	125.48943	27.14565	254.67528	100.68752	15.49281	263.64554	63.44901	11.35638	285.77844	27.01966	8.23286	301.53201	-11.19533	5.59450	317.98874	138.86455	22.53986	304.25241	140.20229	15.59261	311.55356	157.50975	4.19406	328.67871	155.16237	32.15499	336.62549	163.75475	25.10633	344.97598	151.80135	11.53720	277.33408	121.80492	21.58399	297.10083	122.34067	22.25305	302.44400	118.69363	2.35174	310.05637	125.90997	3.97255	260.75037	132.91466	20.84588	252.60457	148.97838	20.81699	242.06946	146.20023	2.71295	242.48064	157.87196	3.88629	
2474	20.608	351.40771	130.84480	49.50983	341.39911	134.58505	51.01492	319.53061	142.52538	46.68293	291.41577	142.64056	43.46810	266.93784	125.69158	27.28051	254.76045	100.99755	15.68480	263.48093	63.67045	11.50772	285.63919	27.21983	8.36080	301.50961	-10.95399	5.61406	318.40237	138.24934	22.71134	304.46497	139.96591	15.72705	311.70691	157.11572	4.27149	329.19180	154.81514	31.78620	336.95853	163.12964	24.23676	344.80670	151.33275	10.14795	277.56387	121.88692	21.71002	297.38046	122.14236	22.36681	302.43491	118.73808	2.25614	309.94977	125.74361	3.57101	261.11499	132.88628	20.97345	252.68571	149.06802	20.78568	242.16161	146.04391	2.70296	242.48151	157.84259	3.91485	
2475	20.617	351.91815	130.48827	49.28952	341.93875	134.17262	50.79362	320.05020	142.27271	46.59994	291.98950	142.53130	43.51826	267.22757	125.90008	27.42181	254.84929	101.26686	15.88619	263.30054	63.89996	11.70913	285.46677	27.40849	8.51279	301.46762	-10.69228	5.62652	318.73221	137.43561	22.94783	304.68527	139.71469	15.86137	311.67172	156.14606	3.99292	329.70300	154.50169	31.35522	337.16736	162.58286	23.33813	344.53635	151.02094	8.80275	277.81290	121.98352	21.84054	297.62744	121.98155	22.47141	302.51282	118.80115	2.21906	309.74411	125.54177	2.77871	261.46976	132.92676	21.10280	252.78835	149.15659	20.76591	242.21638	145.96931	2.70484	242.47748	157.84329	3.89183	
2476	20.625	352.45468	130.13454	49.05905	342.48254	133.77356	50.58496	320.58395	142.04207	46.48772	292.55185	142.48689	43.54147	267.47562	126.10538	27.53059	254.90962	101.54769	16.11922	263.10315	64.13703	11.93770	285.24451	27.58876	8.68253	301.40527	-10.46606	5.61654	318.97778	136.52466	23.21117	304.91348	139.44753	15.99571	311.30170	154.57901	3.25978	330.20148	154.23759	30.90916	337.29102	162.12578	22.46878	344.26447	150.84953	7.57133	278.08032	122.08182	21.99611	297.82819	121.89194	22.55883	302.67062	118.76501	2.29285	309.45544	125.32275	1.63252	261.78622	133.03256	21.24429	252.91580	149.25745	20.74062	242.23123	145.98265	2.72104	242.46805	157.87477	3.82430	
2477	20.633	353.01288	129.76788	48.82607	343.08386	133.34955	50.42068	321.15756	141.86203	46.34843	293.09851	142.46764	43.55392	267.72818	126.38174	27.63242	254.94409	101.84599	16.36317	262.85916	64.38032	12.20225	284.98300	27.78088	8.86003	301.32932	-10.24356	5.59368	319.19327	135.70067	23.42634	305.14975	139.16341	16.13016	310.72964	152.76067	2.32672	330.69199	154.02220	30.51823	337.35895	161.75702	21.67667	344.06082	150.79257	6.55007	278.35400	122.14829	22.19304	298.04788	121.87223	22.61517	302.83868	118.72539	2.39530	309.14606	125.11342	0.38331	262.08582	133.24290	21.40672	253.06451	149.37585	20.70554	242.24356	146.03140	2.73382	242.47832	157.87244	3.73133	
2478	20.642	353.60120	129.38876	48.59745	343.68311	132.95676	50.23376	321.77444	141.68880	46.20818	293.64780	142.48454	43.55858	267.96759	126.69808	27.70795	254.96101	102.17006	16.61232	262.58044	64.63542	12.46583	284.68802	27.98877	9.03057	301.24011	-9.99928	5.57739	319.39258	134.97099	23.60992	305.39420	138.86127	16.26483	310.09454	150.95332	1.37205	331.17285	153.82474	30.18420	337.41089	161.50931	21.01568	343.97443	150.78226	5.80151	278.61441	122.23689	22.38637	298.28098	121.90058	22.66969	302.95862	118.63461	2.49920	308.90533	124.97620	-0.63307	262.38199	133.47879	21.53852	253.22214	149.50507	20.66019	242.25500	146.11768	2.75009	242.50548	157.83894	3.62669	
2479	20.650	354.18509	128.99823	48.38048	344.30267	132.60892	50.01958	322.42505	141.51166	46.09252	294.19623	142.49742	43.55697	268.24191	126.98328	27.78433	254.98782	102.47422	16.83922	262.27591	64.91007	12.71438	284.34720	28.23028	9.19365	301.13040	-9.73449	5.57415	319.70502	134.48892	23.74029	305.64697	138.54004	16.39983	309.85132	149.89941	1.02708	331.65533	153.67290	29.95762	337.50189	161.32983	20.50815	344.06226	150.80763	5.29221	278.84540	122.42688	22.53503	298.56836	121.95985	22.70679	303.02713	118.54112	2.58842	308.79181	124.93034	-1.11263	262.68359	133.76724	21.66459	253.38245	149.64645	20.60439	242.31187	146.14825	2.74816	242.53706	157.75742	3.52046	
2480	20.658	354.75729	128.61992	48.16848	344.90637	132.32011	49.79374	323.09506	141.32899	46.00592	294.72980	142.50519	43.57077	268.53860	127.26638	27.92554	255.01892	102.83009	17.03509	261.94922	65.22618	12.92256	283.99026	28.51115	9.34846	300.99487	-9.40224	5.59823	320.17520	134.09099	23.88255	305.90826	138.19870	16.53528	310.05576	149.59058	1.29360	332.16644	153.55165	29.83115	337.64185	161.19286	20.18322	344.22241	150.77946	5.02053	279.06668	122.63239	22.65473	298.89291	122.02347	22.73666	302.94336	118.49594	2.56438	308.82803	124.98225	-0.97209	262.99945	134.19061	21.76175	253.52898	149.80006	20.55119	242.40518	146.12611	2.73796	242.56393	157.64507	3.43600	
2481	20.667	355.30960	128.24655	47.97100	345.48245	132.07820	49.56683	323.75726	141.11752	45.97467	295.25250	142.51227	43.58959	268.83936	127.57994	28.07540	255.05534	103.21999	17.19314	261.62360	65.57806	13.07649	283.64761	28.83623	9.47764	300.82605	-8.98394	5.63095	320.71204	133.65298	24.13663	306.17819	137.83618	16.67128	310.65845	149.69684	1.95869	332.69110	153.40311	29.79128	337.80627	161.06342	19.98849	344.47250	150.76891	4.89002	279.27597	122.87288	22.73038	299.15225	122.15025	22.71744	302.82602	118.48479	2.51407	309.02750	125.13223	-0.13717	263.30597	134.71399	21.83219	253.66069	149.95102	20.50160	242.51199	146.07213	2.71836	242.57407	157.53162	3.37373	
2482	20.675	355.78857	127.93887	47.79344	346.01993	131.88660	49.35677	324.40198	140.89215	45.99826	295.76376	142.50989	43.62458	269.14713	127.90005	28.25474	255.09576	103.64944	17.32346	261.32584	65.96198	13.17294	283.32047	29.18797	9.57493	300.63132	-8.53270	5.65625	321.31607	133.14645	24.45132	306.45691	137.45140	16.80795	311.52316	149.83061	2.75864	333.19260	153.25351	29.80548	337.96860	160.95689	19.86783	344.62561	150.78842	4.82247	279.48508	123.10193	22.78152	299.43839	122.24400	22.70265	302.72971	118.50708	2.46463	309.26605	125.29118	0.87262	263.59235	135.28514	21.89408	253.77666	150.10631	20.46608	242.60522	145.99663	2.71046	242.54906	157.49190	3.35998	
